<svg width="24" height="24" viewBox="0 0 24 24" fill="none" xmlns="http://www.w3.org/2000/svg">
<path fill-rule="evenodd" clip-rule="evenodd" d="M22.9991 5.02295L22.2756 17.4981H1.72448L1.00093 5.02295C0.995116 4.92569 1.01658 4.82878 1.06269 4.74411C1.10881 4.65943 1.17756 4.5907 1.2605 4.54633C1.34345 4.50197 1.43698 4.48391 1.5296 4.49438C1.62222 4.50485 1.7099 4.54339 1.78187 4.60526L6.66499 8.78415L11.6241 2.18117C11.6706 2.12436 11.7282 2.07874 11.7931 2.04747C11.858 2.01619 11.9286 2 12 2C12.0715 2 12.1421 2.01619 12.207 2.04747C12.2718 2.07874 12.3295 2.12436 12.3759 2.18117L17.3351 8.78415L22.2191 4.60526C22.2911 4.54371 22.3787 4.50545 22.4712 4.49516C22.5636 4.48486 22.6569 4.50299 22.7397 4.54731C22.8225 4.59163 22.8911 4.66022 22.9372 4.7447C22.9832 4.82918 23.0048 4.92587 22.9991 5.02295ZM1.87836 20.1203L1.78271 18.4985H22.219L22.1234 20.1203C22.0932 20.6288 21.879 21.1063 21.5243 21.4555C21.1695 21.8047 20.701 21.9994 20.2138 22.0001H3.78598C3.2992 21.9989 2.83109 21.804 2.47677 21.4548C2.12245 21.1056 1.90849 20.6285 1.87836 20.1203Z" fill="#B9A6BE"/>
</svg>
