<svg width="24" height="24" viewBox="0 0 24 24" fill="none" xmlns="http://www.w3.org/2000/svg">
<path d="M21.3548 5H12.3226L2.35156 12.4873V18.7105H21.3548L22 18.2999V16.9999L21.5801 16.5666V15.3376L22 14.9999V12.9999L21.6224 12.6074V11.35L22 10.9999V8.99993L21.6224 8.63761V7.53566L22 6.99999V5.69999C22 5.31338 21.7111 5 21.3548 5Z" fill="#E5646E"/>
<path d="M12.0127 7H21.9997V8.99999H12.0127V7Z" fill="#F2F2F6"/>
<path d="M12 10.9998L12.3226 12.9997H22V10.9998H12Z" fill="#F2F2F6"/>
<path d="M2.64516 16.2V12.6357L2 13V15L2.27344 15.2529V16.5667L2 17V18.2999C2 18.6866 2.28887 18.9999 2.64516 18.9999H21.3548C21.7111 18.9999 22 18.6865 22 18.2999H4.58066C3.51172 18.2999 2.64516 17.3598 2.64516 16.2Z" fill="#DB4655"/>
<path d="M12.3226 5H2.64516L2.23438 5.69999L2.64516 12.9999H12.3226V5Z" fill="#5055A0"/>
<path d="M2.64516 5C2.28887 5 2 5.31338 2 5.69999V12.9999H2.64516V5Z" fill="#3F3F8F"/>
<path d="M3.29289 6.56034C3.11457 6.56034 2.96875 6.40361 2.96875 6.21035C2.96875 6.01708 3.11145 5.86035 3.28977 5.86035H3.29293C3.47125 5.86035 3.61551 6.01708 3.61551 6.21035C3.61551 6.40361 3.47117 6.56034 3.29289 6.56034Z" fill="white"/>
<path d="M3.29289 9.36015C3.11457 9.36015 2.96875 9.20342 2.96875 9.01015C2.96875 8.81689 3.11145 8.66016 3.28977 8.66016H3.29293C3.47125 8.66016 3.61551 8.81689 3.61551 9.01015C3.61551 9.20342 3.47117 9.36015 3.29289 9.36015Z" fill="white"/>
<path d="M3.29289 12.1602C3.11457 12.1602 2.96875 12.0035 2.96875 11.8102C2.96875 11.6169 3.11145 11.4602 3.28977 11.4602H3.29293C3.47125 11.4602 3.61551 11.6169 3.61551 11.8102C3.61551 12.0035 3.47117 12.1602 3.29289 12.1602Z" fill="white"/>
<path d="M3.29289 7.96049C3.11457 7.96049 2.96875 7.80376 2.96875 7.61049C2.96875 7.41723 3.11145 7.2605 3.28977 7.2605H3.29293C3.47125 7.2605 3.61551 7.41723 3.61551 7.61049C3.61547 7.80376 3.47117 7.96049 3.29289 7.96049Z" fill="#F2F2F6"/>
<path d="M3.29289 10.7605C3.11457 10.7605 2.96875 10.6038 2.96875 10.4105C2.96875 10.2173 3.11145 10.0605 3.28977 10.0605H3.29293C3.47125 10.0605 3.61551 10.2173 3.61551 10.4105C3.61551 10.6038 3.47117 10.7605 3.29289 10.7605Z" fill="#F2F2F6"/>
<path d="M11.0361 6.56034C10.8577 6.56034 10.7119 6.40361 10.7119 6.21035C10.7119 6.01708 10.8546 5.86035 11.0329 5.86035H11.0361C11.2144 5.86035 11.3587 6.01708 11.3587 6.21035C11.3587 6.40361 11.2144 6.56034 11.0361 6.56034Z" fill="white"/>
<path d="M11.0361 9.36015C10.8577 9.36015 10.7119 9.20342 10.7119 9.01015C10.7119 8.81689 10.8546 8.66016 11.0329 8.66016H11.0361C11.2144 8.66016 11.3587 8.81689 11.3587 9.01015C11.3587 9.20342 11.2144 9.36015 11.0361 9.36015Z" fill="white"/>
<path d="M11.0361 12.1602C10.8577 12.1602 10.7119 12.0035 10.7119 11.8102C10.7119 11.6169 10.8546 11.4602 11.0329 11.4602H11.0361C11.2144 11.4602 11.3587 11.6169 11.3587 11.8102C11.3587 12.0035 11.2144 12.1602 11.0361 12.1602Z" fill="white"/>
<path d="M11.0351 7.96049C10.8568 7.96049 10.7109 7.80376 10.7109 7.61049C10.7109 7.41723 10.8536 7.2605 11.032 7.2605H11.0351C11.2134 7.2605 11.3577 7.41723 11.3577 7.61049C11.3577 7.80376 11.2134 7.96049 11.0351 7.96049Z" fill="#F2F2F6"/>
<path d="M11.0351 10.7605C10.8568 10.7605 10.7109 10.6038 10.7109 10.4105C10.7109 10.2173 10.8536 10.0605 11.032 10.0605H11.0351C11.2134 10.0605 11.3577 10.2173 11.3577 10.4105C11.3577 10.6038 11.2134 10.7605 11.0351 10.7605Z" fill="#F2F2F6"/>
<path d="M5.22844 6.56034C5.05012 6.56034 4.9043 6.40361 4.9043 6.21035C4.9043 6.01708 5.04699 5.86035 5.22531 5.86035H5.22848C5.4068 5.86035 5.55105 6.01708 5.55105 6.21035C5.55105 6.40361 5.40676 6.56034 5.22844 6.56034Z" fill="#F2F2F6"/>
<path d="M5.22844 9.36015C5.05012 9.36015 4.9043 9.20342 4.9043 9.01015C4.9043 8.81689 5.04699 8.66016 5.22531 8.66016H5.22848C5.4068 8.66016 5.55105 8.81689 5.55105 9.01015C5.55105 9.20342 5.40676 9.36015 5.22844 9.36015Z" fill="#F2F2F6"/>
<path d="M5.22844 12.1602C5.05012 12.1602 4.9043 12.0035 4.9043 11.8102C4.9043 11.6169 5.04699 11.4602 5.22531 11.4602H5.22848C5.4068 11.4602 5.55105 11.6169 5.55105 11.8102C5.55105 12.0035 5.40676 12.1602 5.22844 12.1602Z" fill="#F2F2F6"/>
<path d="M5.22844 7.96049C5.05012 7.96049 4.9043 7.80376 4.9043 7.61049C4.9043 7.41723 5.04699 7.2605 5.22531 7.2605H5.22848C5.4068 7.2605 5.55105 7.41723 5.55105 7.61049C5.55102 7.80376 5.40676 7.96049 5.22844 7.96049Z" fill="white"/>
<path d="M5.22844 10.7605C5.05012 10.7605 4.9043 10.6038 4.9043 10.4105C4.9043 10.2173 5.04699 10.0605 5.22531 10.0605H5.22848C5.4068 10.0605 5.55105 10.2173 5.55105 10.4105C5.55105 10.6038 5.40676 10.7605 5.22844 10.7605Z" fill="white"/>
<path d="M4.26066 7.26078C4.08234 7.26078 3.93652 7.10405 3.93652 6.91079C3.93652 6.71752 4.07922 6.56079 4.25754 6.56079H4.2607C4.43902 6.56079 4.58328 6.71752 4.58328 6.91079C4.58324 7.10409 4.43898 7.26078 4.26066 7.26078Z" fill="white"/>
<path d="M4.26066 10.0606C4.08234 10.0606 3.93652 9.90385 3.93652 9.71059C3.93652 9.51733 4.07922 9.3606 4.25754 9.3606H4.2607C4.43902 9.3606 4.58328 9.51733 4.58328 9.71059C4.58328 9.90385 4.43898 10.0606 4.26066 10.0606Z" fill="white"/>
<path d="M4.26066 8.66044C4.08234 8.66044 3.93652 8.50371 3.93652 8.31044C3.93652 8.11718 4.07922 7.96045 4.25754 7.96045H4.2607C4.43902 7.96045 4.58328 8.11718 4.58328 8.31044C4.58328 8.50371 4.43898 8.66044 4.26066 8.66044Z" fill="#F2F2F6"/>
<path d="M4.26066 11.4602C4.08234 11.4602 3.93652 11.3035 3.93652 11.1102C3.93652 10.917 4.07922 10.7603 4.25754 10.7603H4.2607C4.43902 10.7603 4.58328 10.917 4.58328 11.1102C4.58328 11.3035 4.43898 11.4602 4.26066 11.4602Z" fill="#F2F2F6"/>
<path d="M7.16398 6.56034C6.98566 6.56034 6.83984 6.40361 6.83984 6.21035C6.83984 6.01708 6.98254 5.86035 7.16086 5.86035H7.16402C7.34234 5.86035 7.4866 6.01708 7.4866 6.21035C7.4866 6.40361 7.34227 6.56034 7.16398 6.56034Z" fill="white"/>
<path d="M7.16398 9.36015C6.98566 9.36015 6.83984 9.20342 6.83984 9.01015C6.83984 8.81689 6.98254 8.66016 7.16086 8.66016H7.16402C7.34234 8.66016 7.4866 8.81689 7.4866 9.01015C7.4866 9.20342 7.34227 9.36015 7.16398 9.36015Z" fill="white"/>
<path d="M7.16398 12.1602C6.98566 12.1602 6.83984 12.0035 6.83984 11.8102C6.83984 11.6169 6.98254 11.4602 7.16086 11.4602H7.16402C7.34234 11.4602 7.4866 11.6169 7.4866 11.8102C7.4866 12.0035 7.34227 12.1602 7.16398 12.1602Z" fill="white"/>
<path d="M7.16398 7.96049C6.98566 7.96049 6.83984 7.80376 6.83984 7.61049C6.83984 7.41723 6.98254 7.2605 7.16086 7.2605H7.16402C7.34234 7.2605 7.4866 7.41723 7.4866 7.61049C7.48656 7.80376 7.34227 7.96049 7.16398 7.96049Z" fill="#F2F2F6"/>
<path d="M7.16398 10.7605C6.98566 10.7605 6.83984 10.6038 6.83984 10.4105C6.83984 10.2173 6.98254 10.0605 7.16086 10.0605H7.16402C7.34234 10.0605 7.4866 10.2173 7.4866 10.4105C7.4866 10.6038 7.34227 10.7605 7.16398 10.7605Z" fill="#F2F2F6"/>
<path d="M6.19719 7.26078C6.01887 7.26078 5.87305 7.10405 5.87305 6.91079C5.87305 6.71752 6.01574 6.56079 6.19406 6.56079H6.19723C6.37555 6.56079 6.5198 6.71752 6.5198 6.91079C6.5198 7.10409 6.37551 7.26078 6.19719 7.26078Z" fill="#F2F2F6"/>
<path d="M6.19719 10.0606C6.01887 10.0606 5.87305 9.90385 5.87305 9.71059C5.87305 9.51733 6.01574 9.3606 6.19406 9.3606H6.19723C6.37555 9.3606 6.5198 9.51733 6.5198 9.71059C6.5198 9.90385 6.37551 10.0606 6.19719 10.0606Z" fill="#F2F2F6"/>
<path d="M6.19719 8.66044C6.01887 8.66044 5.87305 8.50371 5.87305 8.31044C5.87305 8.11718 6.01574 7.96045 6.19406 7.96045H6.19723C6.37555 7.96045 6.5198 8.11718 6.5198 8.31044C6.5198 8.50371 6.37551 8.66044 6.19719 8.66044Z" fill="white"/>
<path d="M6.19719 11.4602C6.01887 11.4602 5.87305 11.3035 5.87305 11.1102C5.87305 10.917 6.01574 10.7603 6.19406 10.7603H6.19723C6.37555 10.7603 6.5198 10.917 6.5198 11.1102C6.5198 11.3035 6.37551 11.4602 6.19719 11.4602Z" fill="white"/>
<path d="M9.0966 6.56034C8.91828 6.56034 8.77246 6.40361 8.77246 6.21035C8.77246 6.01708 8.91516 5.86035 9.09348 5.86035H9.09664C9.27496 5.86035 9.41922 6.01708 9.41922 6.21035C9.41922 6.40361 9.27492 6.56034 9.0966 6.56034Z" fill="#F2F2F6"/>
<path d="M9.0966 9.36015C8.91828 9.36015 8.77246 9.20342 8.77246 9.01015C8.77246 8.81689 8.91516 8.66016 9.09348 8.66016H9.09664C9.27496 8.66016 9.41922 8.81689 9.41922 9.01015C9.41922 9.20342 9.27492 9.36015 9.0966 9.36015Z" fill="#F2F2F6"/>
<path d="M9.0966 12.1602C8.91828 12.1602 8.77246 12.0035 8.77246 11.8102C8.77246 11.6169 8.91516 11.4602 9.09348 11.4602H9.09664C9.27496 11.4602 9.41922 11.6169 9.41922 11.8102C9.41922 12.0035 9.27492 12.1602 9.0966 12.1602Z" fill="#F2F2F6"/>
<path d="M9.0966 7.96049C8.91828 7.96049 8.77246 7.80376 8.77246 7.61049C8.77246 7.41723 8.91516 7.2605 9.09348 7.2605H9.09664C9.27496 7.2605 9.41922 7.41723 9.41922 7.61049C9.41918 7.80376 9.27492 7.96049 9.0966 7.96049Z" fill="white"/>
<path d="M9.0966 10.7605C8.91828 10.7605 8.77246 10.6038 8.77246 10.4105C8.77246 10.2173 8.91516 10.0605 9.09348 10.0605H9.09664C9.27496 10.0605 9.41922 10.2173 9.41922 10.4105C9.41922 10.6038 9.27492 10.7605 9.0966 10.7605Z" fill="white"/>
<path d="M8.12883 7.26078C7.95051 7.26078 7.80469 7.10405 7.80469 6.91079C7.80469 6.71752 7.94738 6.56079 8.1257 6.56079H8.12887C8.30719 6.56079 8.45145 6.71752 8.45145 6.91079C8.45141 7.10409 8.30715 7.26078 8.12883 7.26078Z" fill="white"/>
<path d="M8.12883 10.0606C7.95051 10.0606 7.80469 9.90385 7.80469 9.71059C7.80469 9.51733 7.94738 9.3606 8.1257 9.3606H8.12887C8.30719 9.3606 8.45145 9.51733 8.45145 9.71059C8.45145 9.90385 8.30715 10.0606 8.12883 10.0606Z" fill="white"/>
<path d="M8.12883 8.66044C7.95051 8.66044 7.80469 8.50371 7.80469 8.31044C7.80469 8.11718 7.94738 7.96045 8.1257 7.96045H8.12887C8.30719 7.96045 8.45145 8.11718 8.45145 8.31044C8.45145 8.50371 8.30715 8.66044 8.12883 8.66044Z" fill="#F2F2F6"/>
<path d="M8.12883 11.4602C7.95051 11.4602 7.80469 11.3035 7.80469 11.1102C7.80469 10.917 7.94738 10.7603 8.1257 10.7603H8.12887C8.30719 10.7603 8.45145 10.917 8.45145 11.1102C8.45145 11.3035 8.30715 11.4602 8.12883 11.4602Z" fill="#F2F2F6"/>
<path d="M10.0673 7.26078C9.88898 7.26078 9.74316 7.10405 9.74316 6.91079C9.74316 6.71752 9.88586 6.56079 10.0642 6.56079H10.0673C10.2457 6.56079 10.3899 6.71752 10.3899 6.91079C10.3899 7.10409 10.2456 7.26078 10.0673 7.26078Z" fill="#F2F2F6"/>
<path d="M10.0673 10.0606C9.88898 10.0606 9.74316 9.90385 9.74316 9.71059C9.74316 9.51733 9.88586 9.3606 10.0642 9.3606H10.0673C10.2457 9.3606 10.3899 9.51733 10.3899 9.71059C10.3899 9.90385 10.2456 10.0606 10.0673 10.0606Z" fill="#F2F2F6"/>
<path d="M10.0673 8.66044C9.88898 8.66044 9.74316 8.50371 9.74316 8.31044C9.74316 8.11718 9.88586 7.96045 10.0642 7.96045H10.0673C10.2457 7.96045 10.3899 8.11718 10.3899 8.31044C10.3899 8.50371 10.2456 8.66044 10.0673 8.66044Z" fill="white"/>
<path d="M10.0673 11.4602C9.88898 11.4602 9.74316 11.3035 9.74316 11.1102C9.74316 10.917 9.88586 10.7603 10.0642 10.7603H10.0673C10.2457 10.7603 10.3899 10.917 10.3899 11.1102C10.3899 11.3035 10.2456 11.4602 10.0673 11.4602Z" fill="white"/>
<path d="M2.11719 16.4222L2.79141 17.0002H22V15.0002H2.64516L2.11719 16.4222Z" fill="#F2F2F6"/>
<path d="M2 15.0003V17.0003H2.79141C2.69762 16.7536 2.6452 16.4837 2.6452 16.2003V15.0002H2V15.0003Z" fill="#E1E1E6"/>
</svg>
