<svg width="24" height="24" viewBox="0 0 24 24" fill="none" xmlns="http://www.w3.org/2000/svg">
<path fill-rule="evenodd" clip-rule="evenodd" d="M2.90856 2.38423C2.90856 2.16899 3.08897 2 3.31882 2H14.3165C14.5463 2 14.7267 2.16899 14.7267 2.38423V7.97942C14.7267 8.1947 14.5463 8.3636 14.3165 8.3636H10.1819V8.36347H7.45469V8.3636H3.31882C3.08897 8.3636 2.90856 8.1947 2.90856 7.97942V2.38423ZM7.45469 8.3636V10.1816H10.1819V8.3636H7.45469ZM6.87525 10.1817C6.68915 10.1817 6.54509 10.3108 6.54509 10.4704V10.8074C6.54509 10.9673 6.68915 11.0908 6.87525 11.0908H10.7606C10.9465 11.0908 11.0905 10.9673 11.0905 10.8074V10.4704C11.0905 10.3108 10.9465 10.1817 10.7606 10.1817H6.87525ZM2.90909 13.8182C2.40697 13.8182 1.99994 13.4111 2 12.909C2.00006 12.4069 2.40705 12 2.90909 12H21.0909C21.593 12 22 12.407 22 12.9091C22 13.4112 21.593 13.8182 21.0909 13.8182H20.2691H20.2351H2.90909ZM3.81816 14.7274V21.091C3.81816 21.5931 4.22517 22.0001 4.72724 22.0001C5.22932 22.0001 5.63633 21.5931 5.63633 21.091V14.7274H3.81816ZM11.9999 17.4547V14.7274H18.3635V17.4547H11.9999ZM19.272 17.5791C19.2739 17.5872 19.2739 17.5954 19.272 17.6035C19.2739 17.6117 19.2739 17.6198 19.272 17.628V20.6202C19.2739 20.6282 19.2739 20.6363 19.272 20.6444V21.091C19.272 21.5931 19.679 22.0001 20.1811 22.0001C20.6832 22.0001 21.0902 21.5931 21.0902 21.091V14.7274H19.272V17.5791ZM15.6359 16.0879C15.6359 15.839 15.4318 15.6361 15.1814 15.6361C14.9311 15.6361 14.7268 15.839 14.7268 16.0879C14.7268 16.3368 14.9311 16.5452 15.1814 16.5452C15.4318 16.5452 15.6359 16.3368 15.6359 16.0879ZM11.9999 21.0907H18.3635V18.3635H11.9999V21.0907ZM15.6359 19.7245C15.6359 19.4756 15.4318 19.2726 15.1814 19.2726C14.9311 19.2726 14.7268 19.4756 14.7268 19.7245C14.7268 19.9733 14.9311 20.1817 15.1814 20.1817C15.4318 20.1817 15.6359 19.9733 15.6359 19.7245Z" fill="#FBC113"/>
</svg>
