<svg width="24" height="24" viewBox="0 0 24 24" fill="none" xmlns="http://www.w3.org/2000/svg">
<path fill-rule="evenodd" clip-rule="evenodd" d="M3 5.5C3 4.67157 3.67157 4 4.5 4H19.5C20.3284 4 21 4.67157 21 5.5C21 6.32843 20.3284 7 19.5 7H4.5C3.67157 7 3 6.32843 3 5.5ZM3 11.5C3 10.6716 3.67157 10 4.5 10H19.5C20.3284 10 21 10.6716 21 11.5C21 12.3284 20.3284 13 19.5 13H4.5C3.67157 13 3 12.3284 3 11.5ZM4.5 16C3.67157 16 3 16.6716 3 17.5C3 18.3284 3.67157 19 4.5 19H19.5C20.3284 19 21 18.3284 21 17.5C21 16.6716 20.3284 16 19.5 16H4.5Z" fill="white"/>
</svg>
