<svg width="24" height="24" viewBox="0 0 24 24" fill="none" xmlns="http://www.w3.org/2000/svg">
<path fill-rule="evenodd" clip-rule="evenodd" d="M12 10C13.6533 10 15 8.65333 15 7C15 5.34 13.6533 4 12 4C10.3466 4 8.99996 5.34 8.99996 7C8.99996 8.65333 10.3466 10 12 10ZM15.9823 13.92C16.0647 14.0229 16.1412 14.1257 16.2118 14.2343C16.7176 14.9943 17 15.9143 17 16.8571V18.8571V19.1429C17 19.6171 16.6059 20 16.1176 20H7.88235C7.39411 20 6.99999 19.6171 6.99999 19.1429V18.8571V17.1429V16.8571C6.99999 15.9257 7.28235 15.0057 7.79411 14.2343C7.87646 14.1143 7.95882 14 8.04705 13.8914C8.32352 13.5429 8.64117 13.2343 8.99411 12.9771C9.84705 12.3486 10.8941 12 12 12C13.0941 12 14.1412 12.3371 15 12.9771C15.1882 13.1086 15.3647 13.2571 15.5353 13.4229C15.7235 13.6057 15.8647 13.76 15.9823 13.92ZM22 7C22 8.65333 20.6533 10 19 10C17.3467 10 16 8.65333 16 7C16 5.34 17.3467 4 19 4C20.6533 4 22 5.34 22 7ZM21.9085 19C22.5125 19 23 18.5533 23 18V15.3333C23 14.18 22.5125 13.0933 21.6102 12.26C20.7152 11.4467 19.5291 11 18.2703 11C17.4626 11 16.684 11.1867 16 11.5333C16.1673 11.66 16.3347 11.8 16.5021 11.9533C16.7931 12.22 16.9969 12.4333 17.1715 12.66C17.2661 12.7733 17.3825 12.92 17.4917 13.0733C18.2266 14.1133 18.6341 15.3933 18.6341 16.6667V19H21.9085ZM8 11.5333C7.59294 11.84 7.21495 12.2 6.88785 12.5867C6.76428 12.7333 6.64071 12.8867 6.51713 13.0667C5.76116 14.14 5.36137 15.3867 5.36137 16.6667V19H2.09034C1.48702 19 1 18.5533 1 18V15.3333C1 12.9467 3.12253 11 5.72482 11C6.53167 11 7.30945 11.1867 8 11.5333ZM5.00003 10C6.65336 10 8.00003 8.65333 8.00003 7C8.00003 5.34 6.65336 4 5.00003 4C3.3467 4 2.00003 5.34 2.00003 7C2.00003 8.65333 3.3467 10 5.00003 10Z" fill="#B9A6BE"/>
</svg>
