<svg width="16" height="16" viewBox="0 0 16 16" fill="none" xmlns="http://www.w3.org/2000/svg">
<path fill-rule="evenodd" clip-rule="evenodd" d="M7.99993 6.66675C9.10216 6.66675 9.99994 5.76897 9.99994 4.66675C9.99994 3.56008 9.10216 2.66675 7.99993 2.66675C6.89771 2.66675 5.99993 3.56008 5.99993 4.66675C5.99993 5.76897 6.89771 6.66675 7.99993 6.66675ZM10.6549 9.28008C10.7098 9.34865 10.7607 9.41723 10.8078 9.48961C11.1451 9.99627 11.3333 10.6096 11.3333 11.2382V12.5715V12.762C11.3333 13.0782 11.0705 13.3334 10.7451 13.3334H5.25486C4.92937 13.3334 4.66662 13.0782 4.66662 12.762V12.5715V11.4287V11.2382C4.66662 10.6172 4.85486 10.0039 5.19603 9.48961C5.25094 9.40961 5.30584 9.33342 5.36466 9.26103C5.54897 9.02865 5.76074 8.82294 5.99603 8.65151C6.56466 8.23246 7.2627 8.00008 7.99996 8.00008C8.72937 8.00008 9.42741 8.22484 9.99996 8.65151C10.1254 8.73913 10.2431 8.83818 10.3568 8.94865C10.4823 9.07056 10.5764 9.17342 10.6549 9.28008ZM14.6666 4.66675C14.6666 5.76897 13.7688 6.66675 12.6666 6.66675C11.5644 6.66675 10.6666 5.76897 10.6666 4.66675C10.6666 3.56008 11.5644 2.66675 12.6666 2.66675C13.7688 2.66675 14.6666 3.56008 14.6666 4.66675ZM14.6056 12.6667C15.0083 12.6667 15.3333 12.369 15.3333 12.0001V10.2223C15.3333 9.45341 15.0083 8.72897 14.4067 8.17341C13.8101 7.63119 13.0194 7.33341 12.1801 7.33341C11.6417 7.33341 11.1226 7.45786 10.6666 7.68897C10.7782 7.77341 10.8898 7.86675 11.0013 7.96897C11.1954 8.14675 11.3312 8.28897 11.4476 8.44008C11.5107 8.51564 11.5883 8.61341 11.6611 8.71564C12.151 9.40897 12.4227 10.2623 12.4227 11.1112V12.6667H14.6056ZM5.33329 7.68897C5.06192 7.89341 4.80993 8.13341 4.59186 8.39119C4.50948 8.48897 4.4271 8.59119 4.34472 8.71119C3.84073 9.42675 3.57421 10.2579 3.57421 11.1112V12.6667H1.39352C0.991306 12.6667 0.666626 12.369 0.666626 12.0001V10.2223C0.666626 8.63119 2.08165 7.33341 3.8165 7.33341C4.35441 7.33341 4.87293 7.45786 5.33329 7.68897ZM3.33331 6.66675C4.43553 6.66675 5.33331 5.76897 5.33331 4.66675C5.33331 3.56008 4.43553 2.66675 3.33331 2.66675C2.23109 2.66675 1.33331 3.56008 1.33331 4.66675C1.33331 5.76897 2.23109 6.66675 3.33331 6.66675Z" fill="#C1C5D7"/>
</svg>
